<?xml version="1.0" encoding="UTF-8" standalone="no"?>
<svg
   xmlns:dc="http://purl.org/dc/elements/1.1/"
   xmlns:cc="http://creativecommons.org/ns#"
   xmlns:rdf="http://www.w3.org/1999/02/22-rdf-syntax-ns#"
   xmlns:svg="http://www.w3.org/2000/svg"
   xmlns="http://www.w3.org/2000/svg"
   xmlns:sodipodi="http://sodipodi.sourceforge.net/DTD/sodipodi-0.dtd"
   xmlns:inkscape="http://www.inkscape.org/namespaces/inkscape"
   t="1523367581953"
   class="icon"
   style=""
   viewBox="0 0 1024 1024"
   version="1.1"
   p-id="1943"
   width="32"
   height="32"
   id="svg3891"
   sodipodi:docname="play7.svg"
   inkscape:version="0.92.3 (2405546, 2018-03-11)">
  <metadata
     id="metadata3895">
    <rdf:RDF>
      <cc:Work
         rdf:about="">
        <dc:format>image/svg+xml</dc:format>
        <dc:type
           rdf:resource="http://purl.org/dc/dcmitype/StillImage" />
        <dc:title></dc:title>
      </cc:Work>
    </rdf:RDF>
  </metadata>
  <sodipodi:namedview
     pagecolor="#ffffff"
     bordercolor="#666666"
     borderopacity="1"
     objecttolerance="10"
     gridtolerance="10"
     guidetolerance="10"
     inkscape:pageopacity="0"
     inkscape:pageshadow="2"
     inkscape:window-width="1366"
     inkscape:window-height="706"
     id="namedview3893"
     showgrid="false"
     inkscape:zoom="14.75"
     inkscape:cx="18.832242"
     inkscape:cy="13.734996"
     inkscape:window-x="-8"
     inkscape:window-y="-8"
     inkscape:window-maximized="1"
     inkscape:current-layer="svg3891" />
  <defs
     id="defs3885">
    <style
       type="text/css"
       id="style3883" />
    <filter
       inkscape:label="Opacity"
       style="color-interpolation-filters:sRGB;"
       id="filter3923">
      <feColorMatrix
         values="1 0 0 0 0 0 1 0 0 0 0 0 1 0 0 0 0 0 6 -1 "
         result="colormatrix"
         id="feColorMatrix3919" />
      <feComposite
         in2="colormatrix"
         operator="arithmetic"
         k2="0.7"
         result="fbSourceGraphic"
         id="feComposite3921" />
      <feColorMatrix
         result="fbSourceGraphicAlpha"
         in="fbSourceGraphic"
         values="0 0 0 -1 0 0 0 0 -1 0 0 0 0 -1 0 0 0 0 1 0"
         id="feColorMatrix3925" />
      <feColorMatrix
         id="feColorMatrix3927"
         values="1 0 0 0 0 0 1 0 0 0 0 0 1 0 0 0 0 0 6 -1 "
         result="colormatrix"
         in="fbSourceGraphic" />
      <feComposite
         in2="colormatrix"
         id="feComposite3929"
         operator="arithmetic"
         k2="0.5"
         result="composite" />
    </filter>
  </defs>
  <path
     d="M412 327.864l0 360.264 312-180.136L412 327.864zM428 355.576l264 152.424-264 152.424L428 355.576z"
     p-id="1944"
     id="path3887"
     style="fill:#ffffff" />
  <path
     d="M516 124c211.744 0 384 172.264 384 384 0 211.744-172.256 384-384 384-211.736 0-384-172.256-384-384C132 296.264 304.264 124 516 124M516 108c-220.912 0-400 179.088-400 400s179.088 400 400 400 400-179.088 400-400S736.912 108 516 108L516 108z"
     p-id="1945"
     id="path3889" />
  <path
     style="fill:#4d4d4d;stroke-width:0.06779661;filter:url(#filter3923)"
     d="M 14.981395,27.791128 C 10.262479,27.337474 6.217547,24.080789 4.7427891,19.547745 3.6780828,16.275101 4.1054964,12.567804 5.87865,9.6955241 c 1.9251082,-3.1184274 4.9021,-5.0957179 8.525765,-5.6627349 1.025651,-0.1604899 3.084528,-0.1091947 4.068505,0.1013633 4.80298,1.0277733 8.360114,4.5945962 9.400163,9.4257665 0.133349,0.619422 0.153633,0.914357 0.156204,2.271186 0.0026,1.368937 -0.0162,1.653902 -0.153916,2.333961 -1.22791,6.063469 -6.786432,10.213211 -12.893976,9.626062 z m 2.842159,-9.112565 c 3.631366,-2.096878 4.793611,-2.798221 4.731587,-2.85522 -0.0685,-0.06295 -9.05109,-5.259865 -9.522899,-5.509514 L 12.8797,10.233114 v 5.635154 c 0,3.567093 0.02386,5.62686 0.06502,5.612555 0.03576,-0.01243 2.231237,-1.273446 4.87883,-2.80226 z"
     id="path3899"
     inkscape:connector-curvature="0"
     transform="scale(32)" />
  <path
     style="fill:#ffffff;stroke-width:0.06779661"
     d="m 13.422073,15.868268 v -4.686001 l 0.152542,0.08116 c 0.384564,0.204613 7.886463,4.548446 7.925844,4.58931 0.03491,0.03623 -7.764194,4.588946 -8.015318,4.67893 -0.0385,0.0138 -0.06307,-1.802617 -0.06307,-4.663402 z"
     id="path3931"
     inkscape:connector-curvature="0"
     transform="scale(32)" />
  <path
     style="fill:#ffffff;stroke-width:0.06779661"
     d="m 13.46699,18.695512 c -0.02455,-0.978813 -0.0447,-3.056654 -0.04478,-4.617423 -1.25e-4,-2.558127 0.01041,-2.833713 0.106946,-2.796669 0.107258,0.04116 3.553974,2.024221 6.38213,3.671948 1.176161,0.685249 1.488103,0.895349 1.423729,0.958912 -0.129729,0.128096 -7.711351,4.562893 -7.800611,4.562893 -0.01253,0 -0.04286,-0.800847 -0.06742,-1.779661 z"
     id="path3933"
     inkscape:connector-curvature="0"
     transform="scale(32)" />
  <path
     style="fill:#ffffff;stroke-width:2.45856285"
     d="M 418.305,622.01974 C 416.27604,555.97656 416.18963,337.76 418.19334,337.76 c 2.68087,0 209.2623,120.36309 266.83559,155.4696 l 20.47508,12.48515 -13.14924,8.50954 C 664.64529,532.1563 423.6679,674.4 420.99827,674.4 c -0.59574,0 -1.80742,-23.57113 -2.69237,-52.38026 z"
     id="path3935"
     inkscape:connector-curvature="0" />
</svg>
